<?xml version="1.0" standalone="no"?><!-- Generator: Gravit.io --><svg xmlns="http://www.w3.org/2000/svg" xmlns:xlink="http://www.w3.org/1999/xlink" style="isolation:isolate" viewBox="0 0 36 36" width="36" height="36"><defs><clipPath id="_clipPath_nGWVrOr81PGYilEUQs9H7nP6B3lSPwcq"><rect width="36" height="36"/></clipPath></defs><g clip-path="url(#_clipPath_nGWVrOr81PGYilEUQs9H7nP6B3lSPwcq)"><clipPath id="_clipPath_uu2XGR4uU5acs5s8wsfMrLquRTwdJtpl"><path d=" M 0 0 L 36 0 L 36 36 L 0 36 L 0 0 Z " fill="rgb(255,255,255)"/></clipPath><g clip-path="url(#_clipPath_uu2XGR4uU5acs5s8wsfMrLquRTwdJtpl)"><clipPath id="_clipPath_4MesunEN8TNssGwhbwehYz1cU4mGPW2B"><path d=" M 0 0 L 36 0 L 36 36 L 0 36 L 0 0 Z " fill="rgb(255,255,255)"/></clipPath><g clip-path="url(#_clipPath_4MesunEN8TNssGwhbwehYz1cU4mGPW2B)"><path d=" M 23.388 36.23 L 23.388 36.23 L 23.413 32.829 L 23.413 32.829 C 23.413 29.604 23.346 26.346 23.212 23.054 L 23.212 23.054 L 23.187 23.029 L 23.187 23.029 C 22.884 22.878 22.317 22.794 21.486 22.777 L 21.486 22.777 L 21.486 22.777 C 20.655 22.76 20.214 22.744 20.163 22.727 L 20.163 22.727 L 20.163 22.727 C 20.063 22.525 20.012 21.95 20.012 21.001 L 20.012 21.001 L 20.012 21.001 C 20.012 20.052 20.029 19.309 20.063 18.772 L 20.063 18.772 L 20.038 18.721 L 20.038 18.721 C 21.213 18.688 22.288 18.671 23.262 18.671 L 23.262 18.671 L 23.262 18.671 C 24.236 18.671 25.345 18.675 26.588 18.683 L 26.588 18.683 L 26.588 18.683 C 27.83 18.692 29.191 18.78 30.669 18.948 L 30.669 18.948 L 30.669 18.948 C 30.702 19.502 30.719 20.115 30.719 20.787 L 30.719 20.787 L 30.719 20.787 C 30.719 21.459 30.669 22.147 30.568 22.853 L 30.568 22.853 L 30.568 22.853 C 30.367 22.819 30.014 22.802 29.51 22.802 L 29.51 22.802 L 29.51 22.802 C 29.006 22.802 28.334 22.819 27.495 22.853 L 27.495 22.853 L 27.419 22.853 L 27.419 22.853 C 27.385 22.92 27.369 23.693 27.369 25.17 L 27.369 25.17 L 27.369 25.17 C 27.369 26.648 27.419 30.343 27.52 36.255 L 27.52 36.255 L 27.52 36.306 L 27.52 36.306 C 27.15 36.373 26.562 36.406 25.756 36.406 L 25.756 36.406 L 25.126 36.381 L 25.126 36.381 C 24.32 36.381 23.741 36.415 23.388 36.482 L 23.388 36.482 L 23.388 36.482 C 23.388 36.465 23.388 36.381 23.388 36.23 Z " fill="rgb(255,255,255)"/><path d=" M 33.383 21.454 L 33.383 21.454 L 33.383 21.454 C 33.583 21.439 33.719 21.442 33.789 21.461 L 33.789 21.461 L 33.789 21.461 C 33.859 21.48 34.043 21.5 34.341 21.521 L 34.341 21.521 L 34.341 21.521 C 34.639 21.543 35.195 21.546 36.01 21.533 L 36.01 21.533 L 37.222 29.195 L 38.292 36.762 L 38.29 36.784 L 38.29 36.784 C 37.93 36.83 37.516 36.836 37.047 36.803 L 37.047 36.803 L 37.047 36.803 C 36.579 36.77 36.044 36.667 35.442 36.496 L 35.442 36.496 L 35.421 36.495 L 35.421 36.495 C 35.341 36.218 35.225 35.636 35.074 34.747 L 35.074 34.747 L 35.074 34.747 C 34.923 33.859 34.787 33.261 34.666 32.953 L 34.666 32.953 L 34.666 32.953 C 34.612 32.906 34.479 32.875 34.266 32.86 L 34.266 32.86 L 33.347 32.838 L 33.347 32.838 C 33.214 33.1 33.032 33.664 32.799 34.533 L 32.799 34.533 L 32.799 34.533 C 32.566 35.401 32.353 35.999 32.158 36.328 L 32.158 36.328 L 32.158 36.328 C 32.028 36.347 31.899 36.353 31.772 36.343 L 31.772 36.343 L 29.113 36.112 L 29.113 36.112 C 29.098 36.111 29.085 36.103 29.071 36.088 L 29.071 36.088 L 29.071 36.088 C 29.089 36.046 29.287 35.254 29.668 33.712 L 29.668 33.712 L 29.668 33.712 C 30.048 32.169 30.578 30.234 31.256 27.906 L 31.256 27.906 L 31.256 27.906 C 31.935 25.578 32.644 23.427 33.383 21.454 Z  M 33.376 30.314 L 33.376 30.314 L 33.376 30.314 C 33.901 30.351 34.427 30.389 34.952 30.426 L 34.952 30.426 L 34.952 30.426 C 34.821 27.434 34.657 25.932 34.458 25.917 L 34.458 25.917 L 34.458 25.917 C 34.401 25.913 34.337 26.016 34.265 26.225 L 34.265 26.225 L 34.265 26.225 C 34.193 26.434 33.897 27.797 33.376 30.314 Z " fill-rule="evenodd" fill="rgb(255,255,255)"/><path d=" M 11.908 16.39 C 12.113 16.092 12.308 15.784 12.483 15.455 C 12.904 14.653 13.274 13.832 13.582 12.979 C 13.891 12.146 14.106 11.283 14.219 10.4 C 14.332 9.619 14.343 8.818 14.25 8.037 C 14.219 7.718 14.147 7.4 14.045 7.091 C 13.952 6.814 13.829 6.547 13.675 6.3 C 13.49 6.002 13.336 5.694 13.192 5.376 C 13.11 5.18 13.058 4.985 13.038 4.78 C 13.017 4.574 13.028 4.358 13.079 4.163 C 13.12 3.968 13.202 3.793 13.315 3.639 C 13.428 3.475 13.572 3.341 13.747 3.249 C 13.921 3.146 14.117 3.084 14.312 3.064 C 14.62 3.023 14.928 3.095 15.195 3.259 C 15.493 3.434 15.74 3.691 15.915 3.989 C 16.089 4.276 16.223 4.584 16.315 4.913 C 16.439 5.355 16.531 5.817 16.583 6.28 C 16.634 6.742 16.654 7.194 16.654 7.657 C 16.665 8.139 16.644 8.633 16.603 9.116 C 16.562 9.588 16.5 10.071 16.428 10.544 C 16.377 10.934 16.305 11.314 16.213 11.694 C 16.13 12.075 16.028 12.455 15.904 12.825 C 15.771 13.236 15.627 13.647 15.463 14.037 C 15.298 14.438 15.124 14.828 14.949 15.208 C 14.846 15.465 14.723 15.712 14.6 15.958 C 14.476 16.195 14.343 16.441 14.199 16.678 C 14.034 16.965 13.86 17.243 13.685 17.52 C 13.5 17.797 13.325 18.075 13.141 18.342 C 13.089 18.434 13.028 18.517 12.956 18.599 C 12.904 18.671 12.853 18.753 12.791 18.825 C 12.709 18.938 12.627 19.051 12.545 19.164 C 12.432 19.318 12.288 19.452 12.123 19.554 C 11.969 19.657 11.795 19.719 11.62 19.729 C 11.332 19.76 11.045 19.698 10.808 19.534 C 10.521 19.339 10.274 19.082 10.099 18.784 C 9.986 18.609 9.894 18.424 9.801 18.239 C 9.493 17.623 9.185 16.996 8.877 16.369 C 8.61 16.852 8.332 17.335 8.034 17.808 C 7.654 18.414 7.233 19 6.791 19.554 L 6.514 19.893 C 6.411 20.027 6.277 20.14 6.123 20.222 C 5.979 20.315 5.825 20.366 5.661 20.376 C 5.342 20.417 5.034 20.335 4.777 20.161 C 4.489 19.965 4.263 19.698 4.12 19.39 L 1.808 14.695 C 1.561 14.191 1.315 13.688 1.068 13.174 C 0.832 12.67 0.585 12.167 0.339 11.664 C 0.123 11.253 -0.083 10.831 -0.309 10.41 C -0.525 9.999 -0.74 9.578 -0.966 9.167 C -1.059 8.982 -1.162 8.807 -1.254 8.622 C -1.49 8.181 -1.696 7.718 -1.87 7.256 C -1.963 7.03 -2.025 6.793 -2.045 6.547 C -2.076 6.3 -2.066 6.064 -2.014 5.817 C -1.983 5.622 -1.901 5.437 -1.788 5.273 C -1.675 5.119 -1.521 4.985 -1.357 4.882 C -1.192 4.78 -1.007 4.718 -0.812 4.697 C -0.453 4.667 -0.093 4.749 0.195 4.954 C 0.523 5.18 0.791 5.489 0.945 5.859 C 0.996 5.972 1.047 6.095 1.099 6.218 C 1.181 6.424 1.253 6.629 1.325 6.835 C 1.633 7.657 1.962 8.468 2.311 9.27 C 2.876 10.564 3.462 11.849 4.068 13.123 L 5.897 16.965 C 5.907 17.006 5.928 17.037 5.948 17.068 C 6.133 16.791 6.318 16.513 6.493 16.225 C 6.935 15.486 7.346 14.736 7.736 13.975 C 7.253 13.061 6.822 12.126 6.442 11.17 C 6.246 10.688 6.123 10.184 6.061 9.66 C 6.01 9.157 6.031 8.643 6.123 8.139 C 6.205 7.739 6.359 7.359 6.596 7.03 C 6.822 6.701 7.109 6.424 7.448 6.218 C 7.788 6.023 8.157 5.889 8.538 5.848 C 8.918 5.807 9.308 5.848 9.678 5.951 C 10.017 6.054 10.336 6.228 10.603 6.465 C 10.87 6.701 11.086 6.989 11.24 7.307 C 11.404 7.677 11.517 8.057 11.558 8.458 C 11.62 9.033 11.579 9.619 11.425 10.184 C 11.147 11.212 10.788 12.218 10.356 13.184 C 10.87 14.253 11.394 15.321 11.908 16.39 Z  M 9.123 10.718 C 9.195 10.544 9.257 10.359 9.308 10.164 C 9.38 9.896 9.431 9.629 9.462 9.352 C 9.483 9.187 9.483 9.013 9.462 8.848 C 9.442 8.694 9.411 8.54 9.349 8.396 C 9.318 8.304 9.267 8.211 9.195 8.139 C 9.144 8.078 9.082 8.026 9.01 7.996 C 8.969 7.975 8.918 7.975 8.866 7.975 C 8.805 7.985 8.743 8.006 8.692 8.037 C 8.62 8.078 8.558 8.129 8.507 8.201 C 8.466 8.263 8.435 8.335 8.414 8.407 C 8.383 8.52 8.383 8.622 8.394 8.735 C 8.404 8.869 8.435 9.002 8.476 9.136 C 8.579 9.465 8.702 9.783 8.836 10.092 C 8.928 10.307 9.031 10.513 9.123 10.718 Z " fill-rule="evenodd" fill="rgb(255,255,255)"/><path d=" M 18.147 36.953 L 18.147 36.953 L 15.776 37.073 L 15.776 37.073 C 15.007 36.999 14.341 36.722 13.78 36.243 L 13.78 36.243 L 13.78 36.243 C 13.382 35.945 13.072 35.524 12.849 34.98 L 12.849 34.98 L 12.849 34.98 C 12.626 34.436 12.489 33.882 12.437 33.317 L 12.437 33.317 L 12.437 33.317 C 12.385 32.752 12.334 32.157 12.285 31.533 L 12.285 31.533 L 12.285 31.533 C 12.235 30.908 12.186 30.328 12.136 29.793 L 12.136 29.793 L 12.136 29.793 C 12.086 29.258 12.069 28.847 12.084 28.562 L 12.084 28.562 L 12.084 28.562 C 12.099 28.276 12.122 28.05 12.154 27.882 L 12.154 27.882 L 12.154 27.882 C 12.186 27.715 12.228 27.536 12.28 27.345 L 12.28 27.345 L 12.28 27.345 C 12.332 27.154 12.363 27.02 12.372 26.945 L 12.372 26.945 L 12.372 26.945 C 12.531 26.498 12.918 26.142 13.534 25.876 L 13.534 25.876 L 13.534 25.876 C 14.149 25.61 14.684 25.463 15.138 25.435 L 15.138 25.435 L 15.138 25.435 C 15.593 25.406 15.924 25.384 16.132 25.368 L 16.132 25.368 L 16.822 25.291 L 16.822 25.291 C 18.161 25.185 19.191 25.433 19.913 26.035 L 19.913 26.035 L 19.913 26.035 C 20.46 26.336 20.864 27.651 21.122 29.981 L 21.122 29.981 L 21.122 29.981 C 21.151 30.159 21.169 30.292 21.177 30.381 L 21.177 30.381 L 21.177 30.381 C 21.281 33.038 21.246 34.673 21.07 35.285 L 21.07 35.285 L 21.07 35.285 C 21.009 35.47 20.945 35.602 20.877 35.682 L 20.877 35.682 L 20.877 35.682 C 20.665 36.043 20.332 36.324 19.876 36.525 L 19.876 36.525 L 19.876 36.525 C 19.421 36.725 19.074 36.843 18.837 36.876 L 18.837 36.876 L 18.837 36.876 C 18.601 36.91 18.37 36.936 18.147 36.953 Z  M 16.87 33.865 L 16.87 33.865 L 16.87 33.865 C 17.778 33.794 18.288 33.424 18.4 32.756 L 18.4 32.756 L 18.4 32.756 C 18.427 31.961 18.423 31.347 18.389 30.916 L 18.389 30.916 L 18.389 30.916 C 18.355 30.484 18.307 30.159 18.245 29.939 L 18.245 29.939 L 18.245 29.939 C 18.128 29.409 17.882 29.04 17.506 28.83 L 17.506 28.83 L 17.506 28.83 C 17.272 28.713 17.029 28.665 16.776 28.685 L 16.776 28.685 L 16.776 28.685 C 16.523 28.705 16.269 28.759 16.014 28.846 L 16.014 28.846 L 16.014 28.846 C 15.759 28.934 15.544 29.104 15.369 29.358 L 15.369 29.358 L 15.369 29.358 C 15.286 29.439 15.233 29.627 15.212 29.92 L 15.212 29.92 L 15.212 29.92 C 15.19 30.214 15.197 30.689 15.234 31.345 L 15.234 31.345 L 15.302 32.776 L 15.302 32.776 C 15.334 33.178 15.51 33.467 15.831 33.644 L 15.831 33.644 L 15.831 33.644 C 16.152 33.821 16.499 33.895 16.87 33.865 Z " fill-rule="evenodd" fill="rgb(255,255,255)"/><path d=" M 10.082 29.888 L 10.808 36.993 L 10.808 36.993 C 10.447 36.988 10.007 37.015 9.488 37.073 L 9.488 37.073 L 7.869 37.299 L 7.869 37.299 C 7.824 37.034 7.657 35.772 7.367 33.514 L 7.367 33.514 L 7.367 33.514 C 7.078 31.257 6.819 29.645 6.591 28.679 L 6.591 28.679 L 6.591 28.679 C 6.505 28.854 6.397 29.234 6.268 29.819 L 6.268 29.819 L 6.268 29.819 C 5.894 31.317 5.656 32.072 5.552 32.084 L 5.552 32.084 L 5.552 32.084 C 5.448 32.096 5.305 31.958 5.123 31.67 L 5.123 31.67 L 5.123 31.67 C 4.94 31.383 4.796 31.132 4.69 30.919 L 4.69 30.919 L 4.69 30.919 C 4.583 30.705 4.477 30.496 4.372 30.29 L 4.372 30.29 L 4.372 30.29 C 4.266 30.084 4.173 29.891 4.093 29.713 L 4.093 29.713 L 4.093 29.713 C 4.013 29.534 3.924 29.345 3.827 29.145 L 3.827 29.145 L 3.827 29.145 C 3.857 30.088 3.949 31.242 4.101 32.606 L 4.101 32.606 L 4.101 32.606 C 4.253 33.971 4.498 35.626 4.836 37.57 L 4.836 37.57 L 4.836 37.57 C 4.429 37.691 3.929 37.784 3.335 37.85 L 3.335 37.85 L 1.728 37.985 L 1.728 37.985 C 1.699 37.988 1.663 37.94 1.622 37.839 L 1.622 37.839 L 1.622 37.839 C 1.581 37.739 1.406 36.313 1.099 33.561 L 1.099 33.561 L 1.099 33.561 C 0.792 30.81 0.404 27.2 -0.065 22.732 L -0.065 22.732 L -0.065 22.732 C -0.016 22.637 0.32 22.554 0.943 22.484 L 0.943 22.484 L 2.57 22.325 L 2.57 22.325 C 2.763 22.304 2.889 22.29 2.948 22.283 L 2.948 22.283 L 2.97 22.281 L 2.97 22.281 C 3.203 22.48 3.529 23.014 3.949 23.883 L 3.949 23.883 L 3.949 23.883 C 4.369 24.752 4.657 25.283 4.814 25.476 L 4.814 25.476 L 4.814 25.476 C 4.863 25.516 4.907 25.537 4.945 25.54 L 4.945 25.54 L 4.945 25.54 C 4.983 25.544 5.024 25.445 5.07 25.245 L 5.07 25.245 L 5.07 25.245 C 5.115 25.045 5.165 24.791 5.221 24.485 L 5.221 24.485 L 5.221 24.485 C 5.277 24.178 5.339 23.856 5.406 23.518 L 5.406 23.518 L 5.406 23.518 C 5.582 22.672 5.74 22.136 5.88 21.911 L 5.88 21.911 L 5.88 21.911 C 6 21.912 6.127 21.905 6.261 21.891 L 6.261 21.891 L 9.163 21.454 L 9.163 21.454 C 9.193 21.856 9.241 22.354 9.307 22.947 L 9.307 22.947 L 9.878 27.659 L 9.878 27.659 C 9.983 28.593 10.051 29.336 10.082 29.888 L 10.082 29.888 Z " fill="rgb(255,255,255)"/><path d=" M 30.983 7.48 L 30.983 7.48 C 31.855 8.989 32.71 10.239 33.548 11.231 L 33.548 11.231 L 33.548 11.231 C 34.385 12.222 35.152 12.888 35.849 13.229 L 35.849 13.229 L 35.849 13.229 C 35.547 13.65 35.066 14.053 34.404 14.44 L 34.404 14.44 L 34.404 14.44 C 33.743 14.827 33.125 15.068 32.551 15.162 L 32.551 15.162 L 32.551 15.162 C 31.402 15.351 30.446 15.201 29.682 14.711 L 29.682 14.711 L 29.682 14.711 C 28.919 14.222 28.152 13.273 27.381 11.866 L 27.381 11.866 L 26.155 9.64 L 26.056 9.656 L 26.056 9.656 C 25.154 9.805 24.347 9.82 23.636 9.7 L 23.636 9.7 L 23.636 9.7 C 23.639 10.846 23.691 11.723 23.791 12.33 L 23.791 12.33 L 23.791 12.33 C 23.915 13.085 24.068 13.684 24.25 14.126 L 24.25 14.126 L 24.25 14.126 C 24.433 14.568 24.694 14.955 25.036 15.286 L 25.036 15.286 L 25.036 15.286 C 24.222 16.179 23.265 16.716 22.165 16.896 L 22.165 16.896 L 22.165 16.896 C 21.115 17.069 20.308 16.932 19.746 16.485 L 19.746 16.485 L 19.746 16.485 C 19.183 16.038 18.806 15.232 18.614 14.067 L 18.614 14.067 L 18.614 14.067 C 18.496 13.345 18.42 12.244 18.387 10.766 L 18.387 10.766 L 18.387 10.766 C 18.355 9.288 18.358 6.717 18.395 3.053 L 18.395 3.053 L 16.657 0.633 L 16.657 0.633 C 18.315 -0.871 19.907 -1.748 21.433 -1.999 L 21.433 -1.999 L 21.433 -1.999 C 22.205 -2.126 22.785 -1.926 23.175 -1.401 L 23.175 -1.401 L 23.175 -1.401 C 24.169 -2.12 25.381 -2.598 26.809 -2.833 L 26.809 -2.833 L 26.809 -2.833 C 27.941 -3.019 28.962 -2.938 29.87 -2.59 L 29.87 -2.59 L 29.87 -2.59 C 30.779 -2.243 31.515 -1.711 32.08 -0.994 L 32.08 -0.994 L 32.08 -0.994 C 32.644 -0.278 33 0.523 33.145 1.41 L 33.145 1.41 L 33.145 1.41 C 33.326 2.509 33.239 3.594 32.884 4.664 L 32.884 4.664 L 32.884 4.664 C 32.529 5.734 31.896 6.673 30.983 7.48 L 30.983 7.48 Z  M 23.671 6.837 L 23.671 6.837 C 23.939 6.827 24.13 6.812 24.245 6.793 L 24.245 6.793 L 24.245 6.793 C 25.411 6.602 26.322 6.123 26.98 5.357 L 26.98 5.357 L 26.98 5.357 C 27.638 4.592 27.882 3.692 27.712 2.658 L 27.712 2.658 L 27.712 2.658 C 27.612 2.05 27.305 1.544 26.792 1.14 L 26.792 1.14 L 26.792 1.14 C 26.279 0.736 25.628 0.598 24.84 0.728 L 24.84 0.728 L 24.84 0.728 C 24.512 0.782 24.162 0.907 23.789 1.103 L 23.789 1.103 L 23.789 1.103 C 23.799 1.675 23.77 3.188 23.702 5.644 L 23.702 5.644 L 23.671 6.837 Z " fill-rule="evenodd" fill="rgb(255,255,255)"/></g></g></g></svg>