<?xml version="1.0" standalone="no"?>
<!-- Generator: Gravit.io -->
<svg xmlns="http://www.w3.org/2000/svg" xmlns:xlink="http://www.w3.org/1999/xlink" style="isolation:isolate" viewBox="0 0 256 256" width="256" height="256">
  <defs>
    <clipPath id="_clipPath_mwXj0JqTwOQxYaHOY60Km4IvyZ7JXZuk">
      <rect width="256" height="256"/>
    </clipPath>
  </defs>
  <g clip-path="url(#_clipPath_mwXj0JqTwOQxYaHOY60Km4IvyZ7JXZuk)">
    <g id="Group">
      <clipPath id="_clipPath_sOUHJDeku97RhfwuMzARqKNOjzzblZmg">
        <rect x="0" y="0" width="256" height="256" transform="matrix(1,0,0,1,0,0)" fill="rgb(255,255,255)"/>
      </clipPath>
      <g clip-path="url(#_clipPath_sOUHJDeku97RhfwuMzARqKNOjzzblZmg)">
        <path d=" M 220.324 53.191 L 220.324 53.191 C 226.524 63.922 232.604 72.811 238.564 79.865 L 238.564 79.865 L 238.564 79.865 C 244.516 86.912 249.97 91.648 254.926 94.073 L 254.926 94.073 L 254.926 94.073 C 252.779 97.067 249.358 99.932 244.651 102.684 L 244.651 102.684 L 244.651 102.684 C 239.95 105.436 235.556 107.15 231.474 107.819 L 231.474 107.819 L 231.474 107.819 C 223.303 109.163 216.505 108.096 211.072 104.612 L 211.072 104.612 L 211.072 104.612 C 205.646 101.134 200.192 94.386 194.709 84.38 L 194.709 84.38 L 185.991 68.551 L 185.287 68.665 L 185.287 68.665 C 178.873 69.724 173.134 69.831 168.078 68.978 L 168.078 68.978 L 168.078 68.978 C 168.1 77.127 168.469 83.364 169.18 87.68 L 169.18 87.68 L 169.18 87.68 C 170.062 93.049 171.15 97.308 172.444 100.452 L 172.444 100.452 L 172.444 100.452 C 173.746 103.595 175.602 106.347 178.034 108.7 L 178.034 108.7 L 178.034 108.7 C 172.245 115.051 165.44 118.869 157.618 120.149 L 157.618 120.149 L 157.618 120.149 C 150.151 121.38 144.412 120.405 140.416 117.227 L 140.416 117.227 L 140.416 117.227 C 136.412 114.048 133.732 108.316 132.366 100.032 L 132.366 100.032 L 132.366 100.032 C 131.527 94.898 130.987 87.068 130.752 76.558 L 130.752 76.558 L 130.752 76.558 C 130.524 66.048 130.546 47.765 130.809 21.71 L 130.809 21.71 L 118.45 4.501 L 118.45 4.501 C 130.24 -6.194 141.561 -12.43 152.412 -14.215 L 152.412 -14.215 L 152.412 -14.215 C 157.902 -15.118 162.027 -13.696 164.8 -9.963 L 164.8 -9.963 L 164.8 -9.963 C 171.868 -15.076 180.487 -18.475 190.642 -20.146 L 190.642 -20.146 L 190.642 -20.146 C 198.692 -21.468 205.952 -20.892 212.409 -18.418 L 212.409 -18.418 L 212.409 -18.418 C 218.873 -15.95 224.107 -12.167 228.124 -7.068 L 228.124 -7.068 L 228.124 -7.068 C 232.135 -1.977 234.667 3.719 235.698 10.027 L 235.698 10.027 L 235.698 10.027 C 236.985 17.842 236.366 25.557 233.842 33.166 L 233.842 33.166 L 233.842 33.166 C 231.317 40.775 226.816 47.452 220.324 53.191 L 220.324 53.191 Z  M 168.327 48.619 L 168.327 48.619 C 170.233 48.548 171.591 48.441 172.409 48.306 L 172.409 48.306 L 172.409 48.306 C 180.7 46.948 187.179 43.541 191.858 38.094 L 191.858 38.094 L 191.858 38.094 C 196.537 32.654 198.272 26.254 197.063 18.901 L 197.063 18.901 L 197.063 18.901 C 196.352 14.578 194.169 10.98 190.521 8.107 L 190.521 8.107 L 190.521 8.107 C 186.873 5.234 182.244 4.252 176.64 5.177 L 176.64 5.177 L 176.64 5.177 C 174.308 5.561 171.819 6.45 169.166 7.844 L 169.166 7.844 L 169.166 7.844 C 169.237 11.911 169.031 22.67 168.548 40.135 L 168.548 40.135 L 168.327 48.619 Z " fill-rule="evenodd" fill="rgb(255,255,255)" />
        <path d=" M 71.694 212.537 L 76.857 263.061 L 76.857 263.061 C 74.29 263.026 71.161 263.218 67.47 263.63 L 67.47 263.63 L 55.957 265.237 L 55.957 265.237 C 55.637 263.353 54.45 254.379 52.388 238.322 L 52.388 238.322 L 52.388 238.322 C 50.332 222.272 48.491 210.809 46.869 203.94 L 46.869 203.94 L 46.869 203.94 C 46.258 205.184 45.49 207.886 44.572 212.046 L 44.572 212.046 L 44.572 212.046 C 41.913 222.699 40.22 228.068 39.481 228.153 L 39.481 228.153 L 39.481 228.153 C 38.741 228.238 37.724 227.257 36.43 225.209 L 36.43 225.209 L 36.43 225.209 C 35.129 223.168 34.105 221.383 33.351 219.868 L 33.351 219.868 L 33.351 219.868 C 32.59 218.347 31.836 216.86 31.09 215.396 L 31.09 215.396 L 31.09 215.396 C 30.336 213.931 29.675 212.558 29.106 211.292 L 29.106 211.292 L 29.106 211.292 C 28.537 210.02 27.904 208.676 27.214 207.253 L 27.214 207.253 L 27.214 207.253 C 27.428 213.959 28.082 222.165 29.163 231.865 L 29.163 231.865 L 29.163 231.865 C 30.244 241.572 31.986 253.34 34.389 267.164 L 34.389 267.164 L 34.389 267.164 C 31.495 268.025 27.94 268.686 23.716 269.156 L 23.716 269.156 L 12.288 270.116 L 12.288 270.116 C 12.082 270.137 11.826 269.796 11.534 269.077 L 11.534 269.077 L 11.534 269.077 C 11.243 268.366 9.998 258.226 7.815 238.656 L 7.815 238.656 L 7.815 238.656 C 5.632 219.093 2.873 193.422 -0.462 161.65 L -0.462 161.65 L -0.462 161.65 C -0.114 160.974 2.276 160.384 6.706 159.886 L 6.706 159.886 L 18.276 158.756 L 18.276 158.756 C 19.648 158.606 20.544 158.507 20.964 158.457 L 20.964 158.457 L 21.12 158.443 L 21.12 158.443 C 22.777 159.858 25.095 163.655 28.082 169.835 L 28.082 169.835 L 28.082 169.835 C 31.068 176.014 33.116 179.79 34.233 181.163 L 34.233 181.163 L 34.233 181.163 C 34.581 181.447 34.894 181.596 35.164 181.618 L 35.164 181.618 L 35.164 181.618 C 35.435 181.646 35.726 180.942 36.053 179.52 L 36.053 179.52 L 36.053 179.52 C 36.373 178.098 36.729 176.292 37.127 174.116 L 37.127 174.116 L 37.127 174.116 C 37.525 171.932 37.966 169.643 38.443 167.239 L 38.443 167.239 L 38.443 167.239 C 39.694 161.223 40.818 157.412 41.813 155.812 L 41.813 155.812 L 41.813 155.812 C 42.667 155.819 43.57 155.769 44.523 155.669 L 44.523 155.669 L 65.159 152.562 L 65.159 152.562 C 65.372 155.42 65.714 158.962 66.183 163.179 L 66.183 163.179 L 70.244 196.686 L 70.244 196.686 C 70.99 203.328 71.474 208.612 71.694 212.537 L 71.694 212.537 Z " fill="rgb(255,255,255)"/>
        <path d=" M 129.045 262.777 L 129.045 262.777 L 112.185 263.63 L 112.185 263.63 C 106.716 263.104 101.98 261.134 97.991 257.728 L 97.991 257.728 L 97.991 257.728 C 95.161 255.609 92.956 252.615 91.371 248.747 L 91.371 248.747 L 91.371 248.747 C 89.785 244.878 88.811 240.939 88.441 236.921 L 88.441 236.921 L 88.441 236.921 C 88.071 232.903 87.708 228.672 87.36 224.235 L 87.36 224.235 L 87.36 224.235 C 87.004 219.79 86.656 215.666 86.3 211.861 L 86.3 211.861 L 86.3 211.861 C 85.945 208.057 85.824 205.134 85.931 203.108 L 85.931 203.108 L 85.931 203.108 C 86.037 201.074 86.201 199.467 86.428 198.272 L 86.428 198.272 L 86.428 198.272 C 86.656 197.084 86.955 195.812 87.324 194.453 L 87.324 194.453 L 87.324 194.453 C 87.694 193.095 87.915 192.142 87.979 191.609 L 87.979 191.609 L 87.979 191.609 C 89.109 188.43 91.861 185.899 96.242 184.007 L 96.242 184.007 L 96.242 184.007 C 100.615 182.116 104.42 181.07 107.648 180.871 L 107.648 180.871 L 107.648 180.871 C 110.884 180.665 113.237 180.508 114.716 180.395 L 114.716 180.395 L 119.623 179.847 L 119.623 179.847 C 129.145 179.093 136.469 180.857 141.604 185.138 L 141.604 185.138 L 141.604 185.138 C 145.493 187.278 148.366 196.629 150.201 213.198 L 150.201 213.198 L 150.201 213.198 C 150.407 214.464 150.535 215.41 150.592 216.043 L 150.592 216.043 L 150.592 216.043 C 151.332 234.937 151.083 246.564 149.831 250.916 L 149.831 250.916 L 149.831 250.916 C 149.397 252.231 148.942 253.17 148.459 253.739 L 148.459 253.739 L 148.459 253.739 C 146.951 256.306 144.583 258.304 141.34 259.733 L 141.34 259.733 L 141.34 259.733 C 138.105 261.156 135.637 261.995 133.952 262.229 L 133.952 262.229 L 133.952 262.229 C 132.274 262.471 130.631 262.656 129.045 262.777 Z  M 119.964 240.818 L 119.964 240.818 L 119.964 240.818 C 126.421 240.313 130.048 237.682 130.844 232.932 L 130.844 232.932 L 130.844 232.932 C 131.036 227.278 131.008 222.912 130.766 219.847 L 130.766 219.847 L 130.766 219.847 C 130.524 216.775 130.183 214.464 129.742 212.9 L 129.742 212.9 L 129.742 212.9 C 128.91 209.131 127.161 206.507 124.487 205.013 L 124.487 205.013 L 124.487 205.013 C 122.823 204.181 121.095 203.84 119.296 203.982 L 119.296 203.982 L 119.296 203.982 C 117.497 204.124 115.691 204.508 113.877 205.127 L 113.877 205.127 L 113.877 205.127 C 112.064 205.753 110.535 206.962 109.291 208.768 L 109.291 208.768 L 109.291 208.768 C 108.7 209.344 108.324 210.681 108.174 212.764 L 108.174 212.764 L 108.174 212.764 C 108.018 214.855 108.068 218.233 108.331 222.898 L 108.331 222.898 L 108.814 233.074 L 108.814 233.074 C 109.042 235.932 110.293 237.988 112.576 239.246 L 112.576 239.246 L 112.576 239.246 C 114.859 240.505 117.326 241.031 119.964 240.818 Z " fill-rule="evenodd" fill="rgb(255,255,255)"/>
        <path d=" M 84.679 116.551 C 86.137 114.432 87.524 112.242 88.768 109.902 C 91.762 104.199 94.393 98.361 96.583 92.295 C 98.78 86.372 100.309 80.235 101.113 73.956 C 101.916 68.402 101.995 62.706 101.333 57.152 C 101.113 54.884 100.601 52.622 99.876 50.425 C 99.214 48.455 98.34 46.556 97.244 44.8 C 95.929 42.681 94.834 40.491 93.81 38.229 C 93.227 36.836 92.857 35.449 92.715 33.991 C 92.565 32.526 92.644 30.99 93.006 29.604 C 93.298 28.217 93.881 26.972 94.684 25.877 C 95.488 24.711 96.512 23.758 97.756 23.104 C 98.994 22.372 100.388 21.931 101.774 21.788 C 103.964 21.497 106.155 22.009 108.053 23.175 C 110.172 24.42 111.929 26.247 113.173 28.366 C 114.411 30.407 115.364 32.597 116.018 34.937 C 116.9 38.08 117.554 41.365 117.924 44.658 C 118.286 47.943 118.428 51.157 118.428 54.45 C 118.507 57.877 118.357 61.39 118.066 64.825 C 117.774 68.181 117.333 71.616 116.821 74.98 C 116.459 77.753 115.947 80.455 115.292 83.157 C 114.702 85.867 113.977 88.569 113.095 91.2 C 112.149 94.123 111.125 97.045 109.959 99.819 C 108.786 102.67 107.548 105.444 106.304 108.146 C 105.572 109.973 104.697 111.73 103.822 113.479 C 102.94 115.164 101.995 116.914 100.971 118.599 C 99.797 120.64 98.56 122.617 97.316 124.587 C 96 126.556 94.756 128.533 93.447 130.432 C 93.077 131.086 92.644 131.676 92.132 132.26 C 91.762 132.772 91.399 133.355 90.958 133.867 C 90.375 134.67 89.792 135.474 89.209 136.277 C 88.405 137.372 87.381 138.325 86.208 139.051 C 85.113 139.783 83.876 140.224 82.631 140.295 C 80.583 140.516 78.542 140.075 76.857 138.908 C 74.816 137.522 73.06 135.694 71.815 133.575 C 71.012 132.331 70.357 131.015 69.696 129.7 C 67.506 125.319 65.316 120.86 63.125 116.402 C 61.227 119.836 59.25 123.271 57.131 126.635 C 54.428 130.944 51.435 135.111 48.292 139.051 L 46.322 141.461 C 45.589 142.414 44.636 143.218 43.541 143.801 C 42.517 144.462 41.422 144.825 40.256 144.896 C 37.988 145.188 35.797 144.604 33.97 143.367 C 31.922 141.973 30.315 140.075 29.298 137.884 L 12.857 104.498 C 11.1 100.914 9.351 97.337 7.595 93.682 C 5.916 90.098 4.16 86.521 2.411 82.944 C 0.875 80.021 -0.59 77.02 -2.197 74.027 C -3.733 71.104 -5.262 68.11 -6.869 65.188 C -7.531 63.872 -8.263 62.628 -8.917 61.312 C -10.596 58.176 -12.06 54.884 -13.298 51.598 C -13.959 49.991 -14.4 48.306 -14.542 46.556 C -14.763 44.8 -14.692 43.122 -14.322 41.365 C -14.101 39.979 -13.518 38.663 -12.715 37.497 C -11.911 36.402 -10.816 35.449 -9.65 34.716 C -8.476 33.991 -7.161 33.55 -5.774 33.401 C -3.221 33.188 -0.661 33.771 1.387 35.228 C 3.719 36.836 5.625 39.033 6.72 41.664 C 7.083 42.468 7.445 43.342 7.815 44.217 C 8.398 45.682 8.91 47.14 9.422 48.604 C 11.612 54.45 13.952 60.217 16.434 65.92 C 20.452 75.122 24.619 84.26 28.928 93.319 L 41.934 120.64 C 42.005 120.932 42.155 121.152 42.297 121.372 C 43.612 119.403 44.928 117.426 46.172 115.378 C 49.316 110.123 52.238 104.789 55.012 99.378 C 51.577 92.878 48.512 86.229 45.81 79.431 C 44.416 76.004 43.541 72.42 43.1 68.693 C 42.738 65.116 42.887 61.461 43.541 57.877 C 44.124 55.033 45.22 52.331 46.905 49.991 C 48.512 47.652 50.553 45.682 52.964 44.217 C 55.381 42.83 58.005 41.877 60.715 41.586 C 63.417 41.294 66.19 41.586 68.821 42.318 C 71.232 43.051 73.5 44.288 75.399 45.973 C 77.298 47.652 78.834 49.7 79.929 51.961 C 81.095 54.592 81.899 57.294 82.19 60.146 C 82.631 64.235 82.34 68.402 81.244 72.42 C 79.268 79.73 76.715 86.884 73.643 93.753 C 77.298 101.355 81.024 108.949 84.679 116.551 Z  M 64.875 76.217 C 65.387 74.98 65.828 73.664 66.19 72.277 C 66.702 70.372 67.065 68.473 67.285 66.503 C 67.435 65.33 67.435 64.092 67.285 62.919 C 67.143 61.824 66.923 60.729 66.482 59.705 C 66.261 59.051 65.899 58.389 65.387 57.877 C 65.024 57.444 64.583 57.074 64.071 56.86 C 63.78 56.711 63.417 56.711 63.047 56.711 C 62.613 56.782 62.172 56.932 61.81 57.152 C 61.298 57.444 60.857 57.806 60.494 58.318 C 60.203 58.759 59.982 59.271 59.833 59.783 C 59.612 60.587 59.612 61.312 59.691 62.116 C 59.762 63.068 59.982 64.014 60.274 64.967 C 61.006 67.307 61.881 69.568 62.834 71.765 C 63.488 73.294 64.22 74.759 64.875 76.217 Z " fill-rule="evenodd" fill="rgb(255,255,255)"/>
        <path d=" M 237.39 152.562 L 237.39 152.562 L 237.39 152.562 C 238.812 152.455 239.78 152.476 240.277 152.612 L 240.277 152.612 L 240.277 152.612 C 240.775 152.747 242.084 152.889 244.203 153.038 L 244.203 153.038 L 244.203 153.038 C 246.322 153.195 250.276 153.216 256.071 153.124 L 256.071 153.124 L 264.69 207.609 L 272.299 261.419 L 272.284 261.575 L 272.284 261.575 C 269.724 261.902 266.78 261.945 263.445 261.71 L 263.445 261.71 L 263.445 261.71 C 260.117 261.476 256.313 260.743 252.032 259.527 L 252.032 259.527 L 251.883 259.52 L 251.883 259.52 C 251.314 257.55 250.489 253.412 249.415 247.09 L 249.415 247.09 L 249.415 247.09 C 248.341 240.775 247.374 236.523 246.514 234.332 L 246.514 234.332 L 246.514 234.332 C 246.13 233.998 245.184 233.778 243.669 233.671 L 243.669 233.671 L 237.134 233.515 L 237.134 233.515 C 236.188 235.378 234.894 239.388 233.237 245.568 L 233.237 245.568 L 233.237 245.568 C 231.58 251.74 230.066 255.993 228.679 258.332 L 228.679 258.332 L 228.679 258.332 C 227.755 258.468 226.837 258.51 225.934 258.439 L 225.934 258.439 L 207.026 256.796 L 207.026 256.796 C 206.919 256.789 206.827 256.732 206.727 256.626 L 206.727 256.626 L 206.727 256.626 C 206.855 256.327 208.263 250.695 210.972 239.73 L 210.972 239.73 L 210.972 239.73 C 213.675 228.757 217.444 214.997 222.265 198.443 L 222.265 198.443 L 222.265 198.443 C 227.093 181.888 232.135 166.592 237.39 152.562 Z  M 237.34 215.566 L 237.34 215.566 L 237.34 215.566 C 241.074 215.829 244.814 216.1 248.548 216.363 L 248.548 216.363 L 248.548 216.363 C 247.616 195.086 246.45 184.405 245.035 184.299 L 245.035 184.299 L 245.035 184.299 C 244.629 184.27 244.174 185.003 243.662 186.489 L 243.662 186.489 L 243.662 186.489 C 243.15 187.975 241.045 197.668 237.34 215.566 Z " fill-rule="evenodd" fill="rgb(255,255,255)"/>
        <path d=" M 166.315 257.636 L 166.315 257.636 L 166.492 233.451 L 166.492 233.451 C 166.492 210.517 166.016 187.349 165.063 163.94 L 165.063 163.94 L 164.885 163.762 L 164.885 163.762 C 162.731 162.688 158.699 162.091 152.789 161.97 L 152.789 161.97 L 152.789 161.97 C 146.88 161.849 143.744 161.735 143.381 161.614 L 143.381 161.614 L 143.381 161.614 C 142.67 160.178 142.308 156.089 142.308 149.34 L 142.308 149.34 L 142.308 149.34 C 142.308 142.592 142.428 137.308 142.67 133.49 L 142.67 133.49 L 142.492 133.127 L 142.492 133.127 C 150.848 132.892 158.492 132.772 165.419 132.772 L 165.419 132.772 L 165.419 132.772 C 172.345 132.772 180.231 132.8 189.07 132.857 L 189.07 132.857 L 189.07 132.857 C 197.902 132.921 207.58 133.547 218.091 134.741 L 218.091 134.741 L 218.091 134.741 C 218.325 138.681 218.446 143.04 218.446 147.819 L 218.446 147.819 L 218.446 147.819 C 218.446 152.597 218.091 157.49 217.372 162.51 L 217.372 162.51 L 217.372 162.51 C 215.943 162.268 213.433 162.148 209.849 162.148 L 209.849 162.148 L 209.849 162.148 C 206.265 162.148 201.486 162.268 195.52 162.51 L 195.52 162.51 L 194.98 162.51 L 194.98 162.51 C 194.738 162.987 194.624 168.484 194.624 178.987 L 194.624 178.987 L 194.624 178.987 C 194.624 189.497 194.98 215.772 195.698 257.813 L 195.698 257.813 L 195.698 258.176 L 195.698 258.176 C 193.067 258.652 188.885 258.887 183.154 258.887 L 183.154 258.887 L 178.674 258.709 L 178.674 258.709 C 172.942 258.709 168.825 258.951 166.315 259.428 L 166.315 259.428 L 166.315 259.428 C 166.315 259.307 166.315 258.709 166.315 257.636 Z " fill="rgb(255,255,255)"/>
      </g>
    </g>
  </g>
</svg>
