<svg xmlns:rdf="http://www.w3.org/1999/02/22-rdf-syntax-ns#" style="isolation:isolate" xmlns="http://www.w3.org/2000/svg" version="1.1" xmlns:cc="http://creativecommons.org/ns#" xmlns:dc="http://purl.org/dc/elements/1.1/" viewBox="0 0 256 256">
 <defs>
  <clipPath id="b">
   <rect width="256" height="256"/>
  </clipPath>
 </defs>
 <g clip-path="url(#b)">
  <clipPath id="a">
   <rect height="256" width="256" y="0" x="0" fill="#fff"/>
  </clipPath>
  <g fill="#fff" clip-path="url(#a)">
   <path d="m220.32 53.191c6.2 10.731 12.28 19.62 18.24 26.674 5.96 7.047 11.41 11.783 16.37 14.208-2.15 2.994-5.57 5.859-10.28 8.607-4.7 2.76-9.09 4.47-13.18 5.14-8.17 1.34-14.97 0.28-20.4-3.21-5.42-3.48-10.88-10.224-16.36-20.23l-8.72-15.829-0.7 0.114c-6.42 1.059-12.16 1.166-17.21 0.313 0.02 8.149 0.39 14.386 1.1 18.702 0.88 5.369 1.97 9.628 3.26 12.77 1.31 3.15 3.16 5.9 5.59 8.25-5.79 6.35-12.59 10.17-20.41 11.45-7.47 1.23-13.21 0.25-17.2-2.92-4.01-3.18-6.69-8.91-8.05-17.2-0.84-5.132-1.38-12.962-1.62-23.472-0.23-10.51-0.2-28.793 0.06-54.848l-12.36-17.209c11.79-10.695 23.11-16.931 33.96-18.716 5.49-0.903 9.62 0.519 12.39 4.252 7.07-5.113 15.69-8.512 25.84-10.183 8.05-1.322 15.31-0.746 21.77 1.728 6.46 2.468 11.7 6.251 15.71 11.35 4.02 5.091 6.55 10.787 7.58 17.095 1.28 7.815 0.67 15.53-1.86 23.139-2.52 7.609-7.02 14.286-13.52 20.025zm-51.99-4.572c1.9-0.071 3.26-0.178 4.08-0.313 8.29-1.358 14.77-4.765 19.45-10.212 4.68-5.44 6.41-11.84 5.2-19.193-0.71-4.323-2.89-7.921-6.54-10.794s-8.28-3.855-13.88-2.93c-2.33 0.384-4.82 1.273-7.47 2.667 0.07 4.067-0.14 14.826-0.62 32.291l-0.22 8.484z" fill-rule="evenodd"/>
   <path d="m71.694 212.54l5.163 50.52c-2.567-0.03-5.696 0.16-9.387 0.57l-11.513 1.61c-0.32-1.89-1.507-10.86-3.569-26.92-2.056-16.05-3.897-27.51-5.519-34.38-0.611 1.24-1.379 3.95-2.297 8.11-2.659 10.65-4.352 16.02-5.091 16.1-0.74 0.09-1.757-0.89-3.051-2.94-1.301-2.04-2.325-3.83-3.079-5.34-0.761-1.52-1.515-3.01-2.261-4.47-0.754-1.47-1.415-2.84-1.984-4.11s-1.202-2.61-1.892-4.04c0.214 6.71 0.868 14.91 1.949 24.61 1.081 9.71 2.823 21.48 5.226 35.3-2.894 0.86-6.449 1.53-10.673 2l-11.428 0.96c-0.206 0.02-0.462-0.32-0.754-1.04-0.291-0.71-1.536-10.85-3.719-30.42s-4.942-45.24-8.277-77.01c0.348-0.68 2.738-1.27 7.168-1.76l11.57-1.13c1.372-0.15 2.268-0.25 2.688-0.3l0.156-0.02c1.657 1.42 3.975 5.22 6.962 11.4 2.986 6.17 5.034 9.95 6.151 11.32 0.348 0.29 0.661 0.44 0.931 0.46 0.271 0.03 0.562-0.68 0.889-2.1 0.32-1.42 0.676-3.23 1.074-5.4 0.398-2.19 0.839-4.48 1.316-6.88 1.251-6.02 2.375-9.83 3.37-11.43 0.854 0.01 1.757-0.04 2.71-0.14l20.636-3.11c0.213 2.86 0.555 6.4 1.024 10.62l4.061 33.51c0.746 6.64 1.23 11.92 1.45 15.85z"/>
   <g fill-rule="evenodd">
    <path d="m129.04 262.78l-16.86 0.85c-5.46-0.53-10.2-2.5-14.189-5.9-2.83-2.12-5.035-5.11-6.62-8.98-1.586-3.87-2.56-7.81-2.93-11.83s-0.733-8.25-1.081-12.68c-0.356-4.45-0.704-8.57-1.06-12.38-0.355-3.8-0.476-6.73-0.369-8.75 0.106-2.04 0.27-3.64 0.497-4.84 0.228-1.19 0.527-2.46 0.896-3.82 0.37-1.35 0.591-2.31 0.655-2.84 1.13-3.18 3.882-5.71 8.263-7.6 4.378-1.89 8.178-2.94 11.408-3.14 3.23-0.21 5.59-0.36 7.07-0.47l4.9-0.55c9.52-0.76 16.85 1.01 21.98 5.29 3.89 2.14 6.77 11.49 8.6 28.06 0.21 1.26 0.34 2.21 0.39 2.84 0.74 18.9 0.49 30.52-0.76 34.88-0.43 1.31-0.89 2.25-1.37 2.82-1.51 2.57-3.88 4.56-7.12 5.99s-5.7 2.27-7.39 2.5c-1.68 0.24-3.32 0.43-4.91 0.55zm-9.08-21.96c6.46-0.51 10.09-3.14 10.88-7.89 0.2-5.65 0.17-10.02-0.07-13.08-0.25-3.07-0.59-5.39-1.03-6.95-0.83-3.77-2.58-6.39-5.25-7.89-1.67-0.83-3.39-1.17-5.19-1.03s-3.61 0.53-5.42 1.15c-1.82 0.62-3.34 1.83-4.59 3.64-0.59 0.57-0.97 1.91-1.12 3.99-0.15 2.1-0.1 5.47 0.16 10.14l0.48 10.17c0.23 2.86 1.48 4.92 3.77 6.18 2.28 1.25 4.75 1.78 7.38 1.57z"/>
    <path d="m84.679 116.55c1.458-2.12 2.845-4.31 4.089-6.65 2.994-5.7 5.625-11.539 7.815-17.605 2.197-5.923 3.727-12.06 4.527-18.339 0.81-5.554 0.89-11.25 0.22-16.804-0.22-2.268-0.73-4.53-1.454-6.727-0.662-1.97-1.536-3.869-2.632-5.625-1.315-2.119-2.41-4.309-3.434-6.571-0.583-1.393-0.953-2.78-1.095-4.238-0.15-1.465-0.071-3.001 0.291-4.387 0.292-1.387 0.875-2.632 1.678-3.727 0.804-1.166 1.828-2.119 3.072-2.773 1.238-0.732 2.634-1.173 4.014-1.316 2.19-0.291 4.39 0.221 6.28 1.387 2.12 1.245 3.88 3.072 5.12 5.191 1.24 2.041 2.19 4.231 2.85 6.571 0.88 3.143 1.53 6.428 1.9 9.721 0.37 3.285 0.51 6.499 0.51 9.792 0.08 3.427-0.07 6.94-0.36 10.375-0.3 3.356-0.74 6.791-1.25 10.155-0.36 2.773-0.87 5.475-1.53 8.177-0.59 2.71-1.31 5.412-2.19 8.043-0.95 2.923-1.98 5.845-3.14 8.619-1.17 2.851-2.41 5.621-3.66 8.331-0.73 1.82-1.6 3.58-2.48 5.33-0.88 1.68-1.82 3.43-2.85 5.12-1.173 2.04-2.41 4.02-3.654 5.99-1.316 1.97-2.56 3.94-3.869 5.84-0.37 0.66-0.803 1.25-1.315 1.83-0.37 0.51-0.733 1.1-1.174 1.61-0.583 0.8-1.166 1.6-1.749 2.41-0.804 1.09-1.828 2.04-3.001 2.77-1.095 0.73-2.332 1.17-3.577 1.25-2.048 0.22-4.089-0.22-5.774-1.39-2.041-1.39-3.797-3.22-5.042-5.33-0.803-1.25-1.458-2.56-2.119-3.88-2.19-4.38-4.38-8.84-6.571-13.3-1.898 3.44-3.875 6.87-5.994 10.24-2.703 4.3-5.696 8.47-8.839 12.41l-1.97 2.41c-0.733 0.95-1.686 1.76-2.781 2.34-1.024 0.66-2.119 1.02-3.285 1.1-2.268 0.29-4.459-0.3-6.286-1.53-2.048-1.4-3.655-3.29-4.672-5.49l-16.441-33.38c-1.757-3.59-3.506-7.163-5.262-10.818-1.679-3.584-3.435-7.161-5.184-10.738-1.536-2.923-3.001-5.924-4.608-8.917-1.536-2.923-3.065-5.917-4.672-8.839-0.662-1.316-1.394-2.56-2.048-3.876-1.679-3.136-3.143-6.428-4.381-9.714-0.661-1.607-1.102-3.292-1.244-5.042-0.221-1.756-0.15-3.434 0.22-5.191 0.221-1.386 0.804-2.702 1.607-3.868 0.804-1.095 1.899-2.048 3.065-2.781 1.174-0.725 2.489-1.166 3.876-1.315 2.553-0.213 5.113 0.37 7.161 1.827 2.332 1.608 4.238 3.805 5.333 6.436 0.363 0.804 0.725 1.678 1.095 2.553 0.583 1.465 1.095 2.923 1.607 4.387 2.19 5.846 4.53 11.613 7.012 17.316 4.018 9.202 8.185 18.34 12.494 27.399l13.006 27.321c0.071 0.29 0.221 0.51 0.363 0.73 1.315-1.97 2.631-3.94 3.875-5.99 3.144-5.26 6.066-10.59 8.84-16.002-3.435-6.5-6.5-13.149-9.202-19.947-1.394-3.427-2.269-7.011-2.71-10.738-0.362-3.577-0.213-7.232 0.441-10.816 0.583-2.844 1.679-5.546 3.364-7.886 1.607-2.339 3.648-4.309 6.059-5.774 2.417-1.387 5.041-2.34 7.751-2.631 2.702-0.292 5.475 0 8.106 0.732 2.411 0.733 4.679 1.97 6.578 3.655 1.899 1.679 3.435 3.727 4.53 5.988 1.166 2.631 1.97 5.333 2.261 8.185 0.441 4.089 0.15 8.256-0.946 12.274-1.976 7.31-4.529 14.464-7.601 21.333 3.655 7.607 7.381 15.197 11.036 22.797zm-19.804-40.333c0.512-1.237 0.953-2.553 1.315-3.94 0.512-1.905 0.875-3.804 1.095-5.774 0.15-1.173 0.15-2.411 0-3.584-0.142-1.095-0.362-2.19-0.803-3.214-0.221-0.654-0.583-1.316-1.095-1.828-0.363-0.433-0.804-0.803-1.316-1.017-0.291-0.149-0.654-0.149-1.024-0.149-0.434 0.071-0.875 0.221-1.237 0.441-0.512 0.292-0.953 0.654-1.316 1.166-0.291 0.441-0.512 0.953-0.661 1.465-0.221 0.804-0.221 1.529-0.142 2.333 0.071 0.952 0.291 1.898 0.583 2.851 0.732 2.34 1.607 4.601 2.56 6.798 0.654 1.529 1.386 2.994 2.041 4.452z"/>
    <path d="m237.39 152.56c1.42-0.1 2.39-0.08 2.89 0.05 0.5 0.14 1.8 0.28 3.92 0.43 2.12 0.16 6.08 0.18 11.87 0.08l8.62 54.49 7.61 53.81-0.02 0.16c-2.56 0.32-5.5 0.36-8.84 0.13-3.32-0.23-7.13-0.97-11.41-2.18l-0.15-0.01c-0.57-1.97-1.39-6.11-2.46-12.43-1.08-6.31-2.05-10.57-2.91-12.76-0.38-0.33-1.33-0.55-2.84-0.66l-6.54-0.15c-0.94 1.86-2.24 5.87-3.89 12.05-1.66 6.17-3.17 10.42-4.56 12.76-0.92 0.14-1.84 0.18-2.75 0.11l-18.9-1.64c-0.11-0.01-0.2-0.07-0.3-0.17 0.13-0.3 1.53-5.93 4.24-16.9s6.47-24.73 11.29-41.29c4.83-16.55 9.88-31.85 15.13-45.88zm-0.05 63.01c3.73 0.26 7.47 0.53 11.21 0.79-0.93-21.27-2.1-31.96-3.51-32.06-0.41-0.03-0.87 0.7-1.38 2.19s-2.62 11.18-6.32 29.08z"/>
   </g>
   <path d="m166.32 257.64l0.17-24.19c0-22.93-0.47-46.1-1.43-69.51l-0.18-0.18c-2.15-1.07-6.18-1.67-12.09-1.79s-9.05-0.23-9.41-0.36c-0.71-1.43-1.07-5.52-1.07-12.27s0.12-12.03 0.36-15.85l-0.18-0.36c8.36-0.24 16-0.36 22.93-0.36 6.92 0 14.81 0.03 23.65 0.09 8.83 0.06 18.51 0.69 29.02 1.88 0.23 3.94 0.36 8.3 0.36 13.08s-0.36 9.67-1.08 14.69c-1.43-0.24-3.94-0.36-7.52-0.36-3.59 0-8.36 0.12-14.33 0.36h-0.54c-0.24 0.48-0.36 5.97-0.36 16.48s0.36 36.78 1.08 78.82v0.37c-2.63 0.47-6.82 0.71-12.55 0.71l-4.48-0.18c-5.73 0-9.85 0.24-12.35 0.72v-1.79z"/>
  </g>
 </g>
</svg>
